<svg width="17" height="18" viewBox="0 0 17 18" fill="none" xmlns="http://www.w3.org/2000/svg">
<path d="M0.554623 8.52597C0.478123 8.26384 0.439873 7.99296 0.439873 7.71772C0.439873 7.09951 0.637498 6.50534 0.994498 6.02039C0.917998 5.75825 0.87975 5.48738 0.87975 5.21214C0.87975 4.59393 1.07737 3.99976 1.43437 3.51481C1.35787 3.25267 1.31962 2.9818 1.31962 2.70655C1.31962 1.57937 1.972 0.563593 2.9835 0.120147C3.16129 0.0413501 3.35301 0.00118919 3.54662 0.00218561L13.5787 0.00218473L13.5788 9.3517L13.5724 9.3517L11.7491 16.141C11.4559 17.2354 10.4784 18 9.37338 18C8.74225 18 8.15363 17.7422 7.718 17.2704C7.28238 16.8007 7.05925 16.1847 7.09113 15.5359L7.21863 12.8512L2.12075 12.8512C1.86362 12.8512 1.61287 12.7813 1.39187 12.6481C0.533374 12.1347 -9.27853e-07 11.2041 -1.0136e-06 10.2233C-1.06764e-06 9.6051 0.197623 9.01092 0.554623 8.52597ZM17 0.699029L17 8.65048C17 9.03713 16.6961 9.34951 16.32 9.34951L14.9388 9.34951L14.9387 1.802e-07L16.32 5.94475e-08C16.6961 2.65656e-08 17 0.312379 17 0.699029Z" fill="#FCB441"/>
</svg>
