<svg width="17" height="18" viewBox="0 0 17 18" fill="none" xmlns="http://www.w3.org/2000/svg">
<path d="M16.4454 9.47403C16.5219 9.73616 16.5601 10.007 16.5601 10.2823C16.5601 10.9005 16.3625 11.4947 16.0055 11.9796C16.082 12.2417 16.1203 12.5126 16.1203 12.7879C16.1203 13.4061 15.9226 14.0002 15.5656 14.4852C15.6421 14.7473 15.6804 15.0182 15.6804 15.2934C15.6804 16.4206 15.028 17.4364 14.0165 17.8799C13.8387 17.9586 13.647 17.9988 13.4534 17.9978L3.42125 17.9978L3.42125 8.6483L3.42762 8.6483L5.25087 1.85898C5.54412 0.764564 6.52162 1.33721e-06 7.62662 1.24061e-06C8.25775 1.18543e-06 8.84637 0.25777 9.282 0.729613C9.71762 1.19927 9.94075 1.81529 9.90887 2.46408L9.78137 5.14879L14.8793 5.14879C15.1364 5.14879 15.3871 5.21869 15.6081 5.35194C16.4666 5.86529 17 6.79587 17 7.7767C17 8.3949 16.8024 8.98908 16.4454 9.47403ZM-6.11111e-08 17.301L-7.56249e-07 9.34952C-7.90051e-07 8.96287 0.303874 8.65049 0.679999 8.65049L2.06125 8.65049L2.06125 18L0.68 18C0.303875 18 -2.7309e-08 17.6876 -6.11111e-08 17.301Z" fill="#FCB441"/>
</svg>
