<svg width="17" height="18" viewBox="0 0 17 18" fill="none" xmlns="http://www.w3.org/2000/svg">
<path d="M16.6079 7.32177L9.07216 0.342963C8.82718 0.116087 8.50457 -0.00669442 8.17176 0.000281799C7.83895 0.00725802 7.5217 0.143452 7.28632 0.380397L0.355672 7.35702L0 7.71501V18H6.67857V11.5827H10.3214V18H17V7.68495L16.6079 7.32177ZM8.19787 1.22236C8.20857 1.22236 8.20197 1.22469 8.19738 1.22923C8.19263 1.22469 8.18717 1.22236 8.19787 1.22236ZM15.7857 16.7777H11.5357V11.5827C11.5357 11.2586 11.4078 10.9477 11.1801 10.7184C10.9523 10.4892 10.6435 10.3604 10.3214 10.3604H6.67857C6.35652 10.3604 6.04766 10.4892 5.81994 10.7184C5.59222 10.9477 5.46429 11.2586 5.46429 11.5827V16.7777H1.21429V8.22133L8.19787 1.2447C8.19836 1.24424 8.1984 1.24382 8.19878 1.24337L15.7857 8.22133V16.7777Z" fill="#9B9B9B"/>
</svg>
