<svg width="23" height="23" viewBox="0 0 23 23" fill="none" xmlns="http://www.w3.org/2000/svg">
<path d="M14.375 1.07812H0.71875V14.7344H8.625V22.2812H22.2812V8.625H14.375V1.07812ZM6.66214 4.3125L4.40652 10.7498H5.92969L6.29652 9.70312H8.625V13.2969H2.15625V2.51562H12.9375V8.625H9.94265L8.43184 4.3125H6.66214ZM8.29357 8.26562H6.80018L7.54688 6.13462L8.29357 8.26562ZM20.8438 10.0625V20.8438H10.0625V10.0625H20.8438Z" fill="#A3A3A3"/>
<path d="M14.2596 16.5528C14.3971 16.7736 14.5485 16.9855 14.7129 17.1871C14.1918 17.4681 13.6 17.6089 12.9375 17.6094V19.0469C14.022 19.0469 14.9909 18.759 15.8125 18.2013C16.6341 18.759 17.603 19.0469 18.6875 19.0469V17.6094C18.0264 17.6094 17.4346 17.4685 16.9122 17.1868C17.0765 16.9853 17.2279 16.7735 17.3654 16.5528C17.7797 15.8793 18.0844 15.1442 18.268 14.375H19.0469V12.9375H16.5312V11.8594H15.0938V12.9375H12.5781V14.375H13.357C13.5406 15.1442 13.8453 15.8793 14.2596 16.5528ZM16.7797 14.375C16.631 14.8725 16.418 15.3485 16.1463 15.7909C16.0447 15.9541 15.9333 16.1108 15.8125 16.2603C15.7005 16.1218 15.5966 15.9771 15.5012 15.8267C15.2184 15.3744 14.9977 14.8861 14.8452 14.375H16.7797Z" fill="#A3A3A3"/>
</svg>
