<svg width="23" height="17" viewBox="0 0 23 17" fill="none" xmlns="http://www.w3.org/2000/svg">
<rect x="0.75" y="0.75" width="21.5" height="15.5" rx="7.75" stroke="#A2A2A2" stroke-width="1.5"/>
<path d="M10.792 8.6748C10.792 9.37142 10.6748 9.98014 10.4404 10.501C10.2061 11.0186 9.87402 11.4141 9.44434 11.6875C9.01465 11.9609 8.51335 12.0977 7.94043 12.0977C7.38053 12.0977 6.88411 11.9609 6.45117 11.6875C6.01823 11.4108 5.68132 11.0186 5.44043 10.5107C5.2028 9.99967 5.08073 9.40885 5.07422 8.73828V8.22559C5.07422 7.54199 5.19303 6.93815 5.43066 6.41406C5.66829 5.88997 6.00358 5.48958 6.43652 5.21289C6.87272 4.93294 7.37077 4.79297 7.93066 4.79297C8.50033 4.79297 9.00163 4.93132 9.43457 5.20801C9.87077 5.48145 10.2061 5.88021 10.4404 6.4043C10.6748 6.92513 10.792 7.53223 10.792 8.22559V8.6748ZM9.85938 8.21582C9.85938 7.37272 9.6901 6.72656 9.35156 6.27734C9.01302 5.82487 8.53939 5.59863 7.93066 5.59863C7.33822 5.59863 6.87109 5.82487 6.5293 6.27734C6.19076 6.72656 6.0166 7.35156 6.00684 8.15234V8.6748C6.00684 9.49186 6.17773 10.1348 6.51953 10.6035C6.86458 11.069 7.33822 11.3018 7.94043 11.3018C8.5459 11.3018 9.01465 11.082 9.34668 10.6426C9.67871 10.1999 9.84961 9.56673 9.85938 8.74316V8.21582ZM17.6621 12H16.7197L13.1406 6.52148V12H12.1982V4.89062H13.1406L16.7295 10.3936V4.89062H17.6621V12Z" fill="#A2A2A2"/>
</svg>
