<svg width="19" height="20" viewBox="0 0 19 20" fill="none" xmlns="http://www.w3.org/2000/svg">
<path d="M4.47812 2.67713V2.16762H4.56706V1.41762V0.75H14.0451V1.41762V1.96425H13.9969V2.71425V8.44663C13.9969 9.51675 13.7571 10.5299 13.3362 11.4496L12.8153 12.5875C12.106 13.3602 10.8154 13.9818 9.6428 14.2574L9.25409 14.3488L8.86747 14.2575C7.70637 13.9836 6.46442 13.3614 5.75705 12.5782L5.12796 11.2565C4.71264 10.384 4.47812 9.41846 4.47812 8.40538V2.67713ZM11.9495 18.4863H6.69121C6.74844 18.449 6.80802 18.4117 6.86981 18.3743C7.53476 17.9727 8.34667 17.6373 8.93787 17.4352L9.25399 17.3271L9.57291 17.4356C10.1763 17.6408 11.0504 17.9794 11.7764 18.3861C11.8359 18.4195 11.8937 18.4529 11.9495 18.4863ZM10.7909 10.3028L12.1589 11.142L11.9251 9.55425L11.6114 7.42345L12.9254 5.93269L13.816 4.92238L12.4882 4.6973L10.7597 4.40431L9.96634 2.53289L9.27672 0.906191L8.58558 2.53225L7.78993 4.40423L6.06101 4.6973L4.73317 4.92238L5.62373 5.93269L6.93779 7.42345L6.62406 9.55425L6.39045 11.1408L7.75789 10.303L9.27557 9.37312L10.7909 10.3028Z" stroke="#A2A2A2" stroke-width="1.5"/>
</svg>
