<svg width="22" height="16" viewBox="0 0 22 16" fill="none" xmlns="http://www.w3.org/2000/svg">
<path d="M9.75 5V4.25H9H7H6.25V5V6.25H5H4.25V7V9V9.75H5H6.24937L6.25 11.0004L6.25037 11.75H7H9H9.75037L9.75 10.9996L9.74938 9.75H11H11.75V9V7V6.25H11H9.75V5ZM17.75 9V8.25H17H15H14.25V9V11V11.75H15H17H17.75V11V9ZM15.75 5V4.25H15H13H12.25V5V7V7.75H13H15H15.75V7V5ZM16 0.75C17.3924 0.75 18.7277 1.30312 19.7123 2.28769C20.6969 3.27226 21.25 4.60761 21.25 6V10C21.25 11.3924 20.6969 12.7277 19.7123 13.7123C18.7277 14.6969 17.3924 15.25 16 15.25H6C4.60761 15.25 3.27226 14.6969 2.28769 13.7123C1.30312 12.7277 0.75 11.3924 0.75 10V6C0.75 4.60761 1.30312 3.27226 2.28769 2.28769C3.27226 1.30312 4.60761 0.75 6 0.75H16Z" stroke="#A2A2A2" stroke-width="1.5"/>
</svg>
