<svg width="16" height="17" viewBox="0 0 16 17" fill="none" xmlns="http://www.w3.org/2000/svg">
<path d="M7.99652 0.250488C5.90744 0.250488 3.90392 1.08037 2.42672 2.55758C0.949513 4.03478 0.119629 6.0383 0.119629 8.12738C0.119629 10.2165 0.949513 12.22 2.42672 13.6972C3.90392 15.1744 5.90744 16.0043 7.99652 16.0043C10.0856 16.0043 12.0891 15.1744 13.5663 13.6972C15.0435 12.22 15.8734 10.2165 15.8734 8.12738C15.8734 6.0383 15.0435 4.03478 13.5663 2.55758C12.0891 1.08037 10.0856 0.250488 7.99652 0.250488ZM7.99652 14.3164C6.3551 14.3164 4.78091 13.6643 3.62025 12.5037C2.45959 11.343 1.80753 9.7688 1.80753 8.12738C1.80753 6.48596 2.45959 4.91177 3.62025 3.75111C4.78091 2.59045 6.3551 1.93839 7.99652 1.93839C9.63795 1.93839 11.2121 2.59045 12.3728 3.75111C13.5335 4.91177 14.1855 6.48596 14.1855 8.12738C14.1825 9.7677 13.5297 11.34 12.3699 12.5C11.2101 13.66 9.63796 14.3131 7.99765 14.3164H7.99652Z" fill="#A3A3A3"/>
</svg>
