<svg width="18" height="15" viewBox="0 0 18 15" fill="none" xmlns="http://www.w3.org/2000/svg">
<path d="M15.075 14.25H2.925C2.17788 14.25 1.45905 13.9672 0.915992 13.4594C0.37293 12.9517 0.0467988 12.2575 0.00450012 11.5193L1.52988e-08 11.3555V2.00391C-6.30197e-05 1.49614 0.194666 1.00728 0.544832 0.636126C0.894999 0.264974 1.37449 0.0392072 1.8864 0.00445324L2.025 1.51395e-08H13.275C13.7881 -6.23632e-05 14.2821 0.192638 14.6572 0.539157C15.0322 0.885676 15.2604 1.36017 15.2955 1.86675L15.3 2.00391V2.67188H15.975C16.4881 2.67181 16.9821 2.86451 17.3572 3.21103C17.7322 3.55755 17.9604 4.03205 17.9955 4.53862L18 4.67578V11.3555C18 12.0948 17.7142 12.8061 17.2011 13.3435C16.688 13.881 15.9865 14.2037 15.2406 14.2455L15.075 14.25H2.925H15.075ZM2.925 12.9141H15.075C15.4704 12.914 15.8513 12.7668 16.1421 12.5017C16.4329 12.2365 16.6123 11.8728 16.6446 11.4828L16.65 11.3555V4.67578C16.65 4.51437 16.5909 4.35841 16.4837 4.23676C16.3765 4.11512 16.2284 4.036 16.0668 4.01405L15.975 4.00781H15.3V10.9102C15.3 11.0716 15.2409 11.2275 15.1337 11.3492C15.0265 11.4708 14.8784 11.5499 14.7168 11.5719L14.625 11.5781C14.4619 11.5781 14.3043 11.5197 14.1814 11.4136C14.0584 11.3075 13.9785 11.1609 13.9563 11.001L13.95 10.9102V2.00391C13.95 1.84249 13.8909 1.68654 13.7837 1.56489C13.6765 1.44324 13.5284 1.36412 13.3668 1.34217L13.275 1.33594H2.025C1.86189 1.33594 1.70429 1.3944 1.58136 1.5005C1.45843 1.60659 1.37848 1.75315 1.3563 1.91306L1.35 2.00391V11.3555C1.35001 11.7466 1.49865 12.1235 1.76641 12.4112C2.03417 12.6989 2.40147 12.8765 2.7954 12.9087L2.925 12.9141H15.075H2.925ZM9.2214 9.35156H11.9268C12.0978 9.35161 12.2624 9.41591 12.3874 9.53144C12.5124 9.64698 12.5884 9.80516 12.6 9.974C12.6117 10.1428 12.5581 10.3098 12.4502 10.4411C12.3423 10.5723 12.188 10.6582 12.0186 10.6813L11.9268 10.6875H9.2214C9.05038 10.6874 8.88575 10.6232 8.76079 10.5076C8.63582 10.3921 8.55983 10.2339 8.54818 10.0651C8.53652 9.89621 8.59006 9.72928 8.69799 9.598C8.80591 9.46671 8.96017 9.38087 9.1296 9.3578L9.2214 9.35156H11.9268H9.2214ZM6.5187 6.23883C6.69772 6.23883 6.86941 6.3092 6.996 6.43447C7.12258 6.55974 7.1937 6.72964 7.1937 6.9068V10.0195C7.1937 10.1967 7.12258 10.3666 6.996 10.4919C6.86941 10.6171 6.69772 10.6875 6.5187 10.6875H3.3732C3.19418 10.6875 3.02249 10.6171 2.8959 10.4919C2.76932 10.3666 2.6982 10.1967 2.6982 10.0195V6.9068C2.6982 6.72964 2.76932 6.55974 2.8959 6.43447C3.02249 6.3092 3.19418 6.23883 3.3732 6.23883H6.5187ZM5.8437 7.57477H4.0482V9.35156H5.8437V7.57477ZM9.2214 6.23883H11.9268C12.0978 6.23888 12.2624 6.30317 12.3874 6.41871C12.5124 6.53425 12.5884 6.69242 12.6 6.86127C12.6117 7.03011 12.5581 7.19704 12.4502 7.32833C12.3423 7.45961 12.188 7.54546 12.0186 7.56853L11.9268 7.57477H9.2214C9.04916 7.5765 8.88277 7.51301 8.75629 7.39729C8.62982 7.28157 8.55284 7.12239 8.5411 6.95233C8.52937 6.78227 8.58378 6.61421 8.69319 6.48256C8.80259 6.3509 8.95872 6.26562 9.1296 6.24417L9.2214 6.23883H11.9268H9.2214ZM3.3732 3.11897H11.9268C12.099 3.11724 12.2654 3.18073 12.3919 3.29644C12.5184 3.41216 12.5954 3.57135 12.6071 3.7414C12.6188 3.91146 12.5644 4.07952 12.455 4.21118C12.3456 4.34283 12.1895 4.42811 12.0186 4.44956L11.9268 4.45491H3.3732C3.20218 4.45485 3.03755 4.39056 2.91259 4.27502C2.78762 4.15949 2.71163 4.00131 2.69998 3.83247C2.68832 3.66362 2.74186 3.49669 2.84979 3.36541C2.95771 3.23412 3.11197 3.14827 3.2814 3.1252L3.3732 3.11897H11.9268H3.3732Z" fill="#A3A3A3"/>
</svg>
