<svg width="19" height="23" viewBox="0 0 19 23" fill="none" xmlns="http://www.w3.org/2000/svg">
<path d="M18.0693 15.2039C17.6675 13.9841 17.4622 12.7081 17.461 11.4239V8.25059C17.4902 6.23987 16.7727 4.28976 15.4471 2.77755C14.1261 1.26295 12.2927 0.289095 10.2981 0.0426131C9.19585 -0.0717395 8.07456 0.0426131 7.01045 0.403141C5.94633 0.744611 4.97751 1.31479 4.16116 2.07555C3.34074 2.81669 2.68683 3.7234 2.24258 4.73583C1.79612 5.74788 1.5631 6.8411 1.55805 7.94724V11.4413C1.55573 12.7203 1.35041 13.9908 0.949762 15.2054L0 18.015L0.760763 19.0601H6.32751C6.32751 19.8955 6.66898 20.7118 7.25821 21.3027C7.84586 21.8903 8.6638 22.2334 9.50079 22.2334C10.3362 22.2334 11.1526 21.8919 11.7418 21.3027C12.331 20.7134 12.6741 19.8955 12.6741 19.0601H18.2408L19 18.015L18.0693 15.2039ZM10.6205 20.202C10.4744 20.3511 10.3002 20.4698 10.1081 20.5512C9.9159 20.6327 9.70952 20.6754 9.50079 20.6769C9.29169 20.6755 9.08494 20.6326 8.89249 20.5508C8.70004 20.469 8.52569 20.35 8.3795 20.2004C8.23017 20.0544 8.11119 19.8803 8.02942 19.6882C7.94764 19.496 7.90469 19.2896 7.90303 19.0807H11.0779C11.0845 19.2891 11.0474 19.4966 10.9689 19.6897C10.8904 19.8828 10.7722 20.0574 10.6221 20.202H10.6205ZM1.86141 17.4861L2.45064 15.7169C2.91014 14.3385 3.14763 12.8959 3.15423 11.4429V7.94724C3.15423 7.05306 3.34481 6.17953 3.70534 5.38065C4.06587 4.5643 4.57887 3.84166 5.24434 3.25243C5.90981 2.64572 6.68963 2.18831 7.52504 1.92308C8.3795 1.6372 9.27209 1.5419 10.1456 1.6372C11.7466 1.84771 13.2144 2.639 14.2702 3.86072C15.3264 5.08396 15.8942 6.65382 15.8648 8.26964V11.462C15.8648 12.9057 16.0935 14.3494 16.5684 15.7359L17.1577 17.5036H1.86299V17.4846L1.86141 17.4861Z" fill="#A3A3A3"/>
</svg>
