<svg width="16" height="22" viewBox="0 0 16 22" fill="none" xmlns="http://www.w3.org/2000/svg">
<path d="M11.6883 8.79329V4.56265C11.6883 3.61778 11.3129 2.7116 10.6448 2.04348C9.97668 1.37535 9.07051 1 8.12564 1C7.18076 1 6.27459 1.37535 5.60646 2.04348C4.93834 2.7116 4.56299 3.61778 4.56299 4.56265V8.79329" stroke="#A3A3A3" stroke-width="1.5" stroke-linecap="round" stroke-linejoin="round"/>
<path d="M13.113 8.79346H3.13759C1.95703 8.79346 1 9.75049 1 10.931V18.7689C1 19.9494 1.95703 20.9065 3.13759 20.9065H13.113C14.2936 20.9065 15.2506 19.9494 15.2506 18.7689V10.931C15.2506 9.75049 14.2936 8.79346 13.113 8.79346Z" stroke="#A3A3A3" stroke-width="1.5" stroke-linecap="round" stroke-linejoin="round"/>
</svg>
