<svg width="20" height="20" viewBox="0 0 20 20" fill="none" xmlns="http://www.w3.org/2000/svg">
<path d="M10 1C8.21998 1 6.47992 1.52784 4.99987 2.51677C3.51983 3.50571 2.36628 4.91132 1.68509 6.55585C1.0039 8.20039 0.825669 10.01 1.17294 11.7558C1.5202 13.5017 2.37737 15.1053 3.63605 16.364C4.89472 17.6226 6.49837 18.4798 8.2442 18.8271C9.99003 19.1743 11.7996 18.9961 13.4442 18.3149C15.0887 17.6337 16.4943 16.4802 17.4832 15.0001C18.4722 13.5201 19 11.78 19 10C19 7.61306 18.0518 5.32387 16.364 3.63604C14.6761 1.94821 12.387 1 10 1Z" stroke="#A3A3A3" stroke-miterlimit="10"/>
<path d="M7.13623 7.2535C7.13623 7.2535 7.17919 6.35861 8.13697 5.58799C8.7051 5.13032 9.38623 4.99787 9.99987 4.98867C10.5588 4.98151 11.0579 5.07407 11.3565 5.21623C11.8679 5.45964 12.8635 6.05384 12.8635 7.31742C12.8635 8.64697 11.9942 9.25089 11.0037 9.91515C10.0132 10.5794 9.74419 11.3004 9.74419 12.0455" stroke="#A3A3A3" stroke-miterlimit="10" stroke-linecap="round"/>
<path d="M9.69314 15.7271C10.258 15.7271 10.7159 15.2692 10.7159 14.7044C10.7159 14.1395 10.258 13.6816 9.69314 13.6816C9.1283 13.6816 8.67041 14.1395 8.67041 14.7044C8.67041 15.2692 9.1283 15.7271 9.69314 15.7271Z" fill="#A3A3A3"/>
</svg>
