<svg width="30" height="15" viewBox="0 0 30 15" fill="none" xmlns="http://www.w3.org/2000/svg">
<path d="M18.0109 13.49C17.7141 13.4899 17.424 13.4019 17.1772 13.2369C16.9305 13.072 16.7381 12.8376 16.6246 12.5634C16.511 12.2892 16.4813 11.9874 16.5391 11.6963C16.597 11.4052 16.7399 11.1378 16.9498 10.9279L27.4563 0.421332C27.7394 0.147924 28.1186 -0.00336303 28.5121 5.67392e-05C28.9056 0.00347651 29.2821 0.161329 29.5604 0.439615C29.8387 0.717901 29.9965 1.09436 29.9999 1.4879C30.0034 1.88144 29.8521 2.26058 29.5787 2.54366L19.0721 13.0502C18.9329 13.1898 18.7675 13.3005 18.5854 13.376C18.4033 13.4515 18.2081 13.4902 18.0109 13.49ZM1.50062 14.9909C1.20381 14.9909 0.913678 14.9028 0.666909 14.7379C0.42014 14.573 0.227811 14.3386 0.114235 14.0643C0.000658838 13.7901 -0.0290643 13.4884 0.0288232 13.1973C0.0867108 12.9062 0.22961 12.6387 0.439455 12.4288L9.44508 3.42321C9.72816 3.1498 10.1073 2.99851 10.5008 3.00193C10.8944 3.00535 11.2708 3.16321 11.5491 3.44149C11.8274 3.71978 11.9853 4.09623 11.9887 4.48977C11.9921 4.88331 11.8408 5.26245 11.5674 5.54553L2.56178 14.5512C2.42259 14.6907 2.25718 14.8015 2.07508 14.8769C1.89297 14.9524 1.69775 14.9911 1.50062 14.9909Z" fill="white"/>
<path d="M18.0109 13.4898C17.8137 13.49 17.6185 13.4513 17.4364 13.3758C17.2543 13.3003 17.0889 13.1896 16.9497 13.0501L9.44501 5.54537C9.1716 5.26229 9.02032 4.88315 9.02374 4.4896C9.02716 4.09606 9.18501 3.71961 9.4633 3.44132C9.74158 3.16304 10.118 3.00519 10.5116 3.00177C10.9051 2.99835 11.2843 3.14963 11.5673 3.42304L19.072 10.9277C19.2819 11.1376 19.4248 11.4051 19.4827 11.6962C19.5405 11.9873 19.5108 12.289 19.3972 12.5632C19.2837 12.8375 19.0913 13.0718 18.8446 13.2368C18.5978 13.4017 18.3077 13.4898 18.0109 13.4898Z" fill="white"/>
</svg>
