<svg width="21" height="21" viewBox="0 0 21 21" fill="none" xmlns="http://www.w3.org/2000/svg">
<path d="M14.567 10.6219C14.183 10.6763 13.8419 10.3698 13.542 10.177C12.8944 9.76341 12.3226 9.28389 11.7706 8.7434C11.4295 8.40889 10.9681 7.96397 10.8461 7.48281C10.7901 7.26035 10.8593 7.00493 10.9038 6.78742C10.9813 6.40842 11.0999 6.0393 11.2186 5.67184C11.3526 5.25882 11.5077 4.85292 11.6832 4.45573C11.7706 4.25635 11.8662 4.05861 11.9601 3.86087C12.0474 3.67631 12.1051 3.56755 12.3193 3.53954C12.5599 3.50823 12.8005 3.54448 13.0394 3.55437C13.392 3.56755 13.7447 3.60216 14.0924 3.66148C14.5521 3.73893 15.0152 3.82297 15.4551 3.97951C15.8622 4.12617 16.3285 4.35357 16.5641 4.72763C17.07 5.53177 17.3765 6.44467 17.5446 7.3757C17.594 7.64429 17.6418 7.91783 17.6402 8.19302C17.6418 8.43525 17.6632 8.68408 17.4886 8.87028C17.1755 9.20644 16.8047 9.48493 16.4208 9.73704C15.8523 10.1062 15.2574 10.5231 14.567 10.6219Z" fill="#9C9C9C"/>
<path d="M3.3862 14.5075C3.02862 14.318 2.74849 13.8665 2.53922 13.5353C2.12067 12.8761 1.78286 12.1149 1.62467 11.3486C1.50438 10.762 1.76638 10.1902 1.96248 9.64804C2.15362 9.12568 2.48649 8.71207 2.85066 8.30176C2.94294 8.1963 3.05993 8.11721 3.15221 8.01339C3.25767 7.8964 3.39115 7.78599 3.52957 7.70854C3.62844 7.65252 3.71742 7.72832 3.81794 7.75139C4.08324 7.81565 4.28098 7.95077 4.52156 8.07766C4.73743 8.19301 4.95989 8.29023 5.1774 8.40558C5.64374 8.65605 6.19906 8.86203 6.60607 9.20642C6.6588 9.25092 6.72801 9.30694 6.74284 9.3778C6.78074 9.55412 6.72801 9.78316 6.71977 9.96278C6.70989 10.2149 6.70659 10.4654 6.70494 10.7175C6.7033 11.2876 6.72472 11.8578 6.72472 12.4279C6.72966 12.746 6.76921 13.0624 6.75438 13.3804C6.72801 13.8533 6.21718 14.0214 5.83324 14.117C5.2944 14.2504 4.75226 14.4334 4.20188 14.5009C3.97448 14.5256 3.59878 14.6196 3.3862 14.5075Z" fill="#9C9C9C"/>
<path d="M17.3748 15.9296C17.4259 16.2871 17.1869 16.7172 17.0139 17.0369C16.6712 17.6746 16.1801 18.3008 15.5671 18.7984C15.0991 19.1791 14.4103 19.334 13.7693 19.3983C12.6208 19.5153 11.7441 19.4444 11.5019 19.4065C11.258 19.3686 11.029 19.2944 10.8988 19.133C10.6417 18.8199 10.5973 18.3717 10.5429 17.9861C10.4638 17.4357 10.3946 16.8688 10.4671 16.3152C10.4786 16.2163 10.4934 16.0861 10.5412 15.9988C10.6319 15.8373 10.823 15.7565 11.0125 15.6725C11.9946 15.2391 13.8682 14.1664 14.1731 14.0214C14.6279 13.8022 15.1123 14.0939 15.4485 14.3295C15.9148 14.6574 16.4339 14.9656 16.8458 15.3363C17.0156 15.4879 17.3435 15.7186 17.3748 15.9296Z" fill="#9C9C9C"/>
<path d="M3.26757 3.67132C3.30712 3.61035 3.34502 3.56421 3.40599 3.51807C3.50321 3.44392 3.59549 3.36812 3.68777 3.28738C4.49356 2.58046 5.43777 2.04821 6.37374 1.53738C6.65552 1.38248 6.92411 1.22429 7.21084 1.08093C7.52063 0.927678 7.84031 0.823866 8.17317 0.731587C8.39893 0.668969 8.62797 0.607999 8.86197 0.58493C9.07948 0.563508 9.30194 0.512425 9.5211 0.50913C9.64634 0.507482 9.76168 0.512424 9.88362 0.528903C9.8243 0.624477 9.77157 0.746417 9.72049 0.848583C9.63974 1.00842 9.55735 1.16991 9.47496 1.3281C9.37939 1.51101 9.30523 1.70216 9.20801 1.88342C9.13221 2.02184 9.03334 2.1652 8.89657 2.24595C8.71366 2.3547 8.53899 2.46181 8.3396 2.54256C7.61126 2.83917 6.95872 3.25772 6.28146 3.6499C5.93871 3.84929 5.60255 4.06186 5.27957 4.2942C5.10655 4.41779 4.93847 4.54632 4.75556 4.65673C4.71766 4.68145 4.67976 4.71111 4.63527 4.7177C4.59572 4.72429 4.53475 4.72264 4.49521 4.7177C4.45895 4.71275 4.41611 4.70616 4.38151 4.69957C4.14422 4.65014 3.88715 4.58752 3.64163 4.53314C3.40763 4.48041 3.14563 4.46228 2.92152 4.3766C2.83419 4.34364 2.84408 4.2942 2.87868 4.2184C2.93141 4.09976 3.00886 3.991 3.0896 3.89213C3.14398 3.82128 3.21154 3.75536 3.26757 3.67132Z" fill="#9C9C9C"/>
<path d="M6.11851 13.0838C6.06271 13.0837 6.00803 13.0995 5.9608 13.1292C5.91357 13.1589 5.87571 13.2014 5.85158 13.2517C5.82746 13.302 5.81806 13.3581 5.82447 13.4135C5.83088 13.469 5.85284 13.5215 5.88781 13.5649C5.96856 13.6638 7.87016 15.9939 11.2713 16.5212C11.3096 16.527 11.3487 16.5252 11.3863 16.516C11.4239 16.5067 11.4593 16.4901 11.4906 16.4672C11.5218 16.4442 11.5482 16.4154 11.5682 16.3822C11.5883 16.3491 11.6016 16.3123 11.6074 16.274C11.6133 16.2357 11.6115 16.1966 11.6023 16.159C11.593 16.1214 11.5764 16.0859 11.5535 16.0547C11.5305 16.0235 11.5016 15.9971 11.4685 15.9771C11.4353 15.957 11.3986 15.9437 11.3603 15.9378C8.19478 15.4451 6.36568 13.2156 6.34756 13.1942C6.28824 13.1217 6.2042 13.0838 6.11851 13.0838Z" fill="#9C9C9C"/>
<path d="M5.41643 2.73872C5.33074 2.73872 5.24506 2.77497 5.18738 2.84748C5.10664 2.94635 3.23305 5.29945 3.43573 8.73354C3.44562 8.89668 3.58404 9.02191 3.74717 9.01203C3.91031 9.00214 4.0339 8.86207 4.02401 8.69894C3.83616 5.4906 5.62735 3.24131 5.64548 3.21989C5.74929 3.09301 5.72787 2.9068 5.60264 2.80463C5.54826 2.76179 5.48234 2.73872 5.41643 2.73872Z" fill="#9C9C9C"/>
<path d="M7.6444 1.57868C7.4928 1.57868 7.36427 1.69403 7.35109 1.84892C7.3379 2.01206 7.45819 2.15542 7.62133 2.1686C7.64934 2.17025 10.5199 2.44049 12.6983 4.79031C12.7519 4.84766 12.8261 4.88143 12.9045 4.88421C12.983 4.88699 13.0593 4.85856 13.1169 4.80514C13.2371 4.69473 13.2437 4.50688 13.1317 4.38659C10.7918 1.8654 7.796 1.59021 7.67077 1.57868C7.66088 1.58032 7.65264 1.57868 7.6444 1.57868Z" fill="#9C9C9C"/>
<path d="M3.53952 13.4381C3.4011 13.4381 3.27751 13.5353 3.25114 13.677C3.23467 13.7594 2.86226 15.7121 3.66475 18.0257C3.71913 18.1806 3.88556 18.263 4.04046 18.2086C4.19371 18.1542 4.2761 17.9878 4.22337 17.8329C3.47195 15.6676 3.82624 13.8105 3.83118 13.7907C3.86249 13.6309 3.75868 13.4744 3.59719 13.443C3.57906 13.4397 3.55929 13.4381 3.53952 13.4381Z" fill="#9C9C9C"/>
<path d="M12.1265 18.2843C12.0656 18.2843 12.0029 18.3041 11.9519 18.3437C11.937 18.3536 10.3996 19.4691 8.13053 19.718C7.96905 19.7344 7.8504 19.8811 7.86853 20.0426C7.88501 20.2057 8.03167 20.3211 8.19315 20.3046C10.6287 20.0393 12.2336 18.8693 12.3012 18.8199C12.4314 18.7227 12.4594 18.5381 12.3622 18.4063C12.3061 18.3255 12.2172 18.2843 12.1265 18.2843Z" fill="#9C9C9C"/>
<path d="M19.5846 13.4776C19.4989 13.4776 19.4132 13.5155 19.3539 13.588C17.9137 15.3693 16.1505 16.0532 16.134 16.0597C16.0607 16.0875 16.0014 16.143 15.969 16.2144C15.9365 16.2857 15.9337 16.367 15.961 16.4404C16.0187 16.5936 16.19 16.6694 16.3416 16.6134C16.4207 16.5838 18.2729 15.8653 19.812 13.9604C19.9158 13.8335 19.8944 13.6473 19.7675 13.5452C19.7148 13.499 19.6488 13.4776 19.5846 13.4776Z" fill="#9C9C9C"/>
<path d="M14.3692 9.48329C14.3577 9.48329 14.3429 9.48494 14.3313 9.48659C14.2929 9.49154 14.2558 9.50405 14.2221 9.52341C14.1885 9.54277 14.1591 9.56858 14.1355 9.59937C14.1119 9.63016 14.0946 9.66531 14.0847 9.7028C14.0748 9.74029 14.0723 9.77937 14.0776 9.8178C14.4549 12.6422 14.0842 14.7283 14.0792 14.7498C14.0496 14.9096 14.155 15.0645 14.3165 15.0925C14.478 15.1238 14.6312 15.0151 14.6609 14.8552C14.6757 14.7662 15.0531 12.6554 14.6625 9.73871C14.6428 9.5904 14.5159 9.48329 14.3692 9.48329Z" fill="#9C9C9C"/>
<path d="M11.8052 7.07091C11.7953 7.07091 11.7887 7.07091 11.7788 7.07255C8.10741 7.39718 5.69169 9.4685 5.58952 9.55584C5.53055 9.60735 5.49434 9.68008 5.48879 9.75818C5.48323 9.83628 5.50878 9.91341 5.55986 9.97274C5.66697 10.0963 5.85317 10.1095 5.97676 10.0024C6.00148 9.98263 8.35788 7.96733 11.8315 7.66083C11.907 7.65368 11.9769 7.61778 12.0267 7.56054C12.0765 7.5033 12.1024 7.42911 12.099 7.35332C12.0956 7.27754 12.0632 7.20595 12.0085 7.15338C11.9538 7.10082 11.881 7.07129 11.8052 7.07091Z" fill="#9C9C9C"/>
<path d="M1.26054 10.4572C1.01172 10.4572 0.739824 10.4885 0.486057 10.5858C0.412768 10.6135 0.353427 10.6691 0.321005 10.7404C0.288583 10.8117 0.285718 10.893 0.313035 10.9664C0.372357 11.118 0.540436 11.1955 0.695332 11.1394C1.23912 10.9318 1.96581 11.1444 1.97405 11.146C2.12895 11.1922 2.29373 11.1048 2.33987 10.9466C2.38766 10.7917 2.29867 10.627 2.14378 10.5792C2.11906 10.5726 1.73017 10.4572 1.26054 10.4572Z" fill="#9C9C9C"/>
<path d="M17.3665 7.93596C17.2545 7.93596 17.149 8.00022 17.0996 8.10733C17.0304 8.25399 17.0963 8.43031 17.243 8.49951C17.2594 8.50775 18.9765 9.32014 20.2832 11.1921C20.3755 11.3272 20.5601 11.3602 20.6935 11.2662C20.827 11.1723 20.86 10.9894 20.7677 10.8559C19.367 8.84721 17.5676 8.00022 17.4918 7.96397C17.4489 7.94584 17.4077 7.93596 17.3665 7.93596Z" fill="#9C9C9C"/>
<path d="M17.3664 2.94802C17.3005 2.94802 17.2346 2.96945 17.1786 3.01229C16.503 3.54454 15.8488 4.51182 15.8208 4.55137C15.7285 4.68979 15.7647 4.87764 15.9031 4.97157C16.0399 5.06384 16.2294 5.02759 16.3217 4.88753C16.3283 4.87929 16.9512 3.9598 17.5526 3.48687C17.6828 3.38305 17.7059 3.19355 17.6037 3.06173C17.5427 2.98922 17.4554 2.94802 17.3664 2.94802Z" fill="#9C9C9C"/>
<path d="M10.5 0C4.70951 0 0 4.70951 0 10.5C0 16.2888 4.70951 21 10.5 21C16.2905 21 21 16.2888 21 10.5016C21 4.70951 16.2888 0 10.5 0ZM10.5 19.8185C5.36205 19.8185 1.1815 15.6379 1.1815 10.5C1.1815 5.36205 5.3604 1.1815 10.4984 1.1815C15.6363 1.1815 19.8169 5.36205 19.8169 10.5C19.8185 15.6379 15.6363 19.8185 10.5 19.8185Z" fill="#9C9C9C"/>
</svg>
