<svg width="31" height="24" viewBox="0 0 31 24" fill="none" xmlns="http://www.w3.org/2000/svg">
<path d="M15.5074 23.6224C11.4203 23.6224 7.33323 23.5782 3.24615 23.6372C1.54936 23.6667 -0.0146512 22.2355 0.000103569 20.3912C0.0591227 14.9319 0.0148583 9.47262 0.0148583 3.99859C0.0148583 2.7887 0.560785 1.88866 1.59362 1.26896C2.11004 0.959111 2.67072 0.870582 3.24615 0.870582C7.36274 0.870582 11.4941 0.870582 15.6107 0.870582C19.6682 0.870582 23.7405 0.900091 27.7981 0.855827C29.4801 0.841072 31.0146 2.25753 30.9999 4.07237C30.9556 9.50213 30.9556 14.9171 30.9999 20.3469C31.0146 22.1617 29.5392 23.6667 27.7096 23.6372C23.652 23.5782 19.5797 23.6224 15.5074 23.6224ZM8.67591 2.99527C6.90534 2.99527 5.14952 2.99527 3.37895 2.99527C2.55268 2.99527 2.13955 3.4084 2.13955 4.21992C2.13955 5.04618 2.1543 5.8577 2.12479 6.68396C2.12479 7.00857 2.24283 7.08234 2.53793 7.06759C3.40846 7.06759 4.27899 7.06759 5.14952 7.06759C5.85775 7.06759 6.25613 7.46597 6.25613 8.15944C6.25613 10.8743 6.25613 13.5892 6.25613 16.3041C6.25613 17.0566 5.8725 17.4254 5.12001 17.4402C4.24948 17.4402 3.37895 17.455 2.50842 17.4402C2.24283 17.4402 2.13955 17.514 2.13955 17.7943C2.1543 18.6501 2.13955 19.5059 2.1543 20.3764C2.16906 21.0994 2.59694 21.5125 3.31993 21.5125C6.92009 21.5125 10.5055 21.5125 14.1057 21.5273C14.3713 21.5273 14.4745 21.4387 14.4745 21.1732C14.4598 19.6682 14.4598 18.1484 14.4745 16.6434C14.4745 16.3926 14.386 16.2746 14.1499 16.2008C13.7663 16.0828 13.427 15.8762 13.1171 15.6401C11.7597 14.5925 11.199 13.2056 11.4941 11.5235C11.7597 9.97428 12.6892 8.92669 14.1499 8.35125C14.4008 8.24797 14.4745 8.12993 14.4745 7.86435C14.4598 6.38887 14.4598 4.91339 14.4745 3.45267C14.4745 3.09855 14.3713 3.02478 14.0319 3.02478C12.2318 3.01002 10.4612 2.99527 8.67591 2.99527ZM22.3388 21.5125C24.1094 21.5125 25.8652 21.5125 27.6358 21.5125C28.4621 21.5125 28.8752 21.0994 28.8752 20.2879C28.8752 19.4616 28.8604 18.6501 28.89 17.8238C28.9047 17.4992 28.7719 17.4254 28.4768 17.4402C27.6063 17.455 26.7358 17.455 25.8652 17.4402C25.157 17.4402 24.7586 17.0418 24.7586 16.3483C24.7586 13.6335 24.7586 10.9186 24.7586 8.20371C24.7586 7.45121 25.1422 7.08234 25.8947 7.06759C26.7358 7.06759 27.562 7.05283 28.403 7.06759C28.7719 7.08234 28.9047 6.99381 28.89 6.59544C28.8604 5.81343 28.8752 5.03143 28.8752 4.23467C28.8752 3.39365 28.4621 2.98052 27.6358 2.98052C24.0799 2.98052 20.524 2.98052 16.9681 2.98052C16.6582 2.98052 16.5697 3.06904 16.5697 3.37889C16.5845 4.86913 16.5845 6.3446 16.5697 7.83484C16.5697 8.10042 16.6435 8.21846 16.8943 8.32174C18.5764 8.9562 19.6535 10.5202 19.6387 12.2613C19.624 14.0318 18.5616 15.5516 16.8943 16.1565C16.6435 16.2451 16.5697 16.3926 16.5697 16.6434C16.5845 18.1189 16.5845 19.5944 16.5697 21.0551C16.5697 21.4092 16.673 21.483 17.0124 21.483C18.7829 21.4978 20.5535 21.5125 22.3388 21.5125ZM17.5288 12.2613C17.5435 11.2137 16.555 10.2251 15.4926 10.2251C14.445 10.2251 13.5007 11.1694 13.4712 12.2318C13.4417 13.2646 14.4155 14.2679 15.4779 14.2827C16.5402 14.2974 17.5288 13.3236 17.5288 12.2613ZM2.13955 12.217C2.13955 13.1318 2.13955 14.0614 2.13955 14.9761C2.13955 15.227 2.22807 15.3303 2.47891 15.3155C2.92155 15.3008 3.36419 15.3008 3.80684 15.3155C4.05767 15.3155 4.16095 15.2417 4.16095 14.9761C4.1462 13.1466 4.16095 11.317 4.16095 9.48737C4.16095 9.2513 4.07242 9.16277 3.83635 9.16277C3.40846 9.17752 2.98057 9.19228 2.55268 9.16277C2.21332 9.14801 2.13955 9.2808 2.13955 9.59065C2.13955 10.4759 2.13955 11.3465 2.13955 12.217ZM26.8686 12.2613C26.8686 13.1761 26.8686 14.0761 26.8686 14.9909C26.8686 15.2417 26.9423 15.345 27.2079 15.3303C27.6653 15.3155 28.108 15.3155 28.5654 15.3303C28.8162 15.3303 28.8752 15.227 28.8752 15.0057C28.8752 13.1761 28.8752 11.3465 28.8752 9.51688C28.8752 9.2808 28.8014 9.17752 28.5506 9.19228C28.108 9.20703 27.6653 9.20703 27.2227 9.19228C26.9276 9.17752 26.839 9.29556 26.8538 9.5759C26.8833 10.4612 26.8686 11.3612 26.8686 12.2613Z" fill="white"/>
</svg>
