<svg width="26" height="23" viewBox="0 0 26 23" fill="none" xmlns="http://www.w3.org/2000/svg">
<circle cx="10.5" cy="10.5" r="10.5" fill="#FCB441"/>
<path d="M19.5258 21.2748L19.4462 21.1951L19.4462 21.1951L19.444 21.193L16.8169 18.6299L16.7383 18.5514L16.818 18.4718L17.4464 17.8433L17.5152 17.7918L17.6182 17.8948L19.349 19.6256L19.5246 19.8012L19.7014 19.6268L24.445 14.9473L24.4462 14.9461L24.5258 14.8665L24.6054 14.9461L25.2289 15.5696L25.2297 15.5708L25.1182 15.6823L19.5413 21.2592L19.5258 21.2748Z" fill="#10CC00" stroke="white" stroke-width="0.5"/>
<path d="M19.0769 21.6282L19.5256 22.0769L19.9744 21.6282L25.5513 16.0513L26 15.6026L25.4872 15.0897L24.8462 14.4487L24.3974 14L23.9487 14.4487L19.4615 18.9359L17.9872 17.4615L17.5385 17.0128L17.0897 17.4615L16.4487 18.1026L16 18.5513L16.4487 19L19.0769 21.6282Z" fill="#10CC00"/>
<path d="M7.60927 6.368H12.0473C12.8499 6.368 13.4659 6.494 13.8953 6.746C14.3246 6.998 14.6139 7.35267 14.7633 7.81C14.9126 8.26733 14.9873 8.85533 14.9873 9.574C14.9873 10.2647 14.9126 10.8387 14.7633 11.296C14.6233 11.7533 14.3339 12.1173 13.8953 12.388C13.4566 12.6587 12.8266 12.794 12.0053 12.794H9.59727V16H7.60927V6.368ZM11.1933 11.072C11.7533 11.072 12.1546 11.0347 12.3973 10.96C12.6399 10.8853 12.7986 10.75 12.8733 10.554C12.9479 10.3487 12.9853 10.022 12.9853 9.574C12.9853 9.126 12.9479 8.804 12.8733 8.608C12.8079 8.412 12.6539 8.27667 12.4113 8.202C12.1779 8.12733 11.7813 8.09 11.2213 8.09H9.59727V11.072H11.1933Z" fill="white"/>
</svg>
