<svg width="20" height="19" viewBox="0 0 20 19" fill="none" xmlns="http://www.w3.org/2000/svg">
<path d="M13.1284 7.33319C13.9334 7.33319 14.5867 7.98652 14.5867 8.79152V14.4157C14.5867 15.6315 14.1037 16.7975 13.244 17.6572C12.3843 18.5169 11.2183 18.9999 10.0025 18.9999C8.78672 18.9999 7.62072 18.5169 6.76102 17.6572C5.90132 16.7975 5.41835 15.6315 5.41835 14.4157V8.79152C5.41835 7.98652 6.07085 7.33319 6.87668 7.33319H13.1284ZM1.45834 7.33319L5.11001 7.33152C4.81834 7.68402 4.63001 8.12485 4.59251 8.60819L4.58418 8.79152V14.4157C4.58418 15.3599 4.82668 16.2482 5.25084 17.0215C4.67994 17.2706 4.05598 17.3736 3.43531 17.3212C2.81463 17.2688 2.21678 17.0627 1.69571 16.7214C1.17465 16.3801 0.746781 15.9144 0.450733 15.3664C0.154686 14.8184 -0.000219931 14.2052 2.3436e-07 13.5824V8.79152C0.00083357 7.98652 0.653335 7.33319 1.45917 7.33319H1.45834ZM14.895 7.33152L18.5417 7.33319C19.3467 7.33319 20 7.98652 20 8.79152V13.5832C20.0003 14.2058 19.8455 14.8187 19.5497 15.3666C19.2538 15.9144 18.8262 16.38 18.3054 16.7213C17.7846 17.0625 17.187 17.2688 16.5666 17.3213C15.9462 17.3739 15.3225 17.2712 14.7517 17.0224L14.7984 16.9374C15.1559 16.2599 15.3734 15.4965 15.4134 14.6874L15.42 14.4157V8.79152C15.42 8.23652 15.2225 7.72819 14.895 7.33152ZM10 0.666504C10.383 0.666504 10.7623 0.741946 11.1162 0.888522C11.4701 1.0351 11.7916 1.24994 12.0624 1.52078C12.3333 1.79162 12.5481 2.11315 12.6947 2.46701C12.8413 2.82088 12.9167 3.20015 12.9167 3.58318C12.9167 3.9662 12.8413 4.34547 12.6947 4.69934C12.5481 5.05321 12.3333 5.37474 12.0624 5.64558C11.7916 5.91641 11.4701 6.13126 11.1162 6.27783C10.7623 6.42441 10.383 6.49985 10 6.49985C9.22647 6.49985 8.4846 6.19256 7.93762 5.64558C7.39064 5.09859 7.08335 4.35673 7.08335 3.58318C7.08335 2.80963 7.39064 2.06776 7.93762 1.52078C8.4846 0.973796 9.22647 0.666504 10 0.666504ZM16.6692 1.49984C16.9975 1.49984 17.3226 1.5645 17.6259 1.69014C17.9292 1.81578 18.2048 1.99993 18.437 2.23207C18.6691 2.46422 18.8533 2.73982 18.9789 3.04313C19.1045 3.34645 19.1692 3.67154 19.1692 3.99984C19.1692 4.32815 19.1045 4.65324 18.9789 4.95656C18.8533 5.25987 18.6691 5.53547 18.437 5.76762C18.2048 5.99976 17.9292 6.18391 17.6259 6.30955C17.3226 6.43519 16.9975 6.49985 16.6692 6.49985C16.0062 6.49985 15.3703 6.23646 14.9014 5.76762C14.4326 5.29877 14.1692 4.66289 14.1692 3.99984C14.1692 3.3368 14.4326 2.70092 14.9014 2.23207C15.3703 1.76323 16.0062 1.49984 16.6692 1.49984ZM3.33084 1.49984C3.65915 1.49984 3.98424 1.5645 4.28755 1.69014C4.59087 1.81578 4.86647 1.99993 5.09861 2.23207C5.33076 2.46422 5.51491 2.73982 5.64054 3.04313C5.76618 3.34645 5.83085 3.67154 5.83085 3.99984C5.83085 4.32815 5.76618 4.65324 5.64054 4.95656C5.51491 5.25987 5.33076 5.53547 5.09861 5.76762C4.86647 5.99976 4.59087 6.18391 4.28755 6.30955C3.98424 6.43519 3.65915 6.49985 3.33084 6.49985C2.6678 6.49985 2.03191 6.23646 1.56307 5.76762C1.09423 5.29877 0.830835 4.66289 0.830835 3.99984C0.830835 3.3368 1.09423 2.70092 1.56307 2.23207C2.03191 1.76323 2.6678 1.49984 3.33084 1.49984Z" fill="#C5C5C5"/>
</svg>
