<svg width="28" height="21" viewBox="0 0 28 21" fill="none" xmlns="http://www.w3.org/2000/svg">
<path d="M2.10788 10V5.014L0.856881 5.572V4.636L2.42288 3.808H3.12488V10H2.10788Z" fill="#CCCCCC"/>
<path d="M1.566 19.3174H4.914V20.2444H0.576V19.4614C0.576 18.9454 0.597 18.5614 0.639 18.3094C0.681 18.0574 0.777 17.8504 0.927 17.6884C1.077 17.5204 1.32 17.3704 1.656 17.2384C2.166 17.0224 2.67 16.8184 3.168 16.6264C3.384 16.5364 3.54 16.4584 3.636 16.3924C3.738 16.3204 3.807 16.2364 3.843 16.1404C3.879 16.0384 3.897 15.8944 3.897 15.7084C3.897 15.4624 3.855 15.2854 3.771 15.1774C3.693 15.0634 3.558 14.9884 3.366 14.9524C3.174 14.9164 2.874 14.8984 2.466 14.8984C2.262 14.8984 1.992 14.9104 1.656 14.9344C1.32 14.9584 1.002 14.9884 0.702 15.0244V14.1604C0.978 14.1124 1.314 14.0704 1.71 14.0344C2.106 13.9984 2.469 13.9804 2.799 13.9804C3.255 13.9804 3.63 14.0194 3.924 14.0974C4.224 14.1694 4.464 14.3254 4.644 14.5654C4.824 14.8054 4.914 15.1594 4.914 15.6274C4.914 15.9934 4.875 16.2874 4.797 16.5094C4.719 16.7314 4.602 16.9114 4.446 17.0494C4.29 17.1814 4.074 17.3014 3.798 17.4094L2.061 18.1024C1.869 18.1744 1.74 18.2614 1.674 18.3634C1.632 18.4294 1.602 18.5104 1.584 18.6064C1.572 18.7024 1.566 18.8374 1.566 19.0114V19.3174Z" fill="#CCCCCC"/>
<rect x="8.93335" y="7.62219" width="19.0667" height="1.73333" rx="0.866667" fill="#CCCCCC"/>
<rect x="8.93335" y="16.8667" width="19.0667" height="1.73333" rx="0.866667" fill="#CCCCCC"/>
</svg>
