<svg width="14" height="19" viewBox="0 0 14 19" fill="none" xmlns="http://www.w3.org/2000/svg">
<path d="M0 19H13.5714V15.6072C13.57 14.3478 13.0691 13.1405 12.1786 12.25C11.2881 11.3595 10.0808 10.8586 8.82143 10.8572H4.75C3.49066 10.8586 2.28332 11.3595 1.39283 12.25C0.502343 13.1405 0.00143678 14.3478 0 15.6072V19Z" fill="#C5C5C5"/>
<path d="M2.03564 4.75C2.03564 5.68946 2.31423 6.60782 2.83616 7.38896C3.3581 8.17009 4.09995 8.77891 4.9679 9.13843C5.83585 9.49794 6.79091 9.59201 7.71232 9.40873C8.63373 9.22545 9.4801 8.77306 10.1444 8.10876C10.8087 7.44446 11.2611 6.59809 11.4444 5.67668C11.6277 4.75527 11.5336 3.8002 11.1741 2.93225C10.8146 2.0643 10.2057 1.32246 9.4246 0.800519C8.64347 0.278583 7.72511 0 6.78564 0C5.52587 0 4.31769 0.500445 3.42689 1.39124C2.53609 2.28204 2.03564 3.49022 2.03564 4.75Z" fill="#C5C5C5"/>
</svg>
