<svg width="17" height="20" viewBox="0 0 17 20" fill="none" xmlns="http://www.w3.org/2000/svg">
<path d="M8.5 0C10.7543 0 12.9163 0.895533 14.5104 2.48959C16.1045 4.08365 17 6.24566 17 8.5C17 12.5616 14.2587 16.3002 8.87967 19.7228C8.76615 19.7949 8.63446 19.8332 8.5 19.8332C8.36554 19.8332 8.23385 19.7949 8.12033 19.7228C2.74125 16.3002 0 12.5616 0 8.5C0 6.24566 0.895533 4.08365 2.48959 2.48959C4.08365 0.895533 6.24566 0 8.5 0ZM8.5 5.66667C7.74855 5.66667 7.02788 5.96518 6.49653 6.49653C5.96518 7.02788 5.66667 7.74855 5.66667 8.5C5.66667 9.25145 5.96518 9.97212 6.49653 10.5035C7.02788 11.0348 7.74855 11.3333 8.5 11.3333C9.25145 11.3333 9.97212 11.0348 10.5035 10.5035C11.0348 9.97212 11.3333 9.25145 11.3333 8.5C11.3333 7.74855 11.0348 7.02788 10.5035 6.49653C9.97212 5.96518 9.25145 5.66667 8.5 5.66667Z" fill="#C5C5C5"/>
</svg>
