<svg width="20" height="20" viewBox="0 0 20 20" fill="none" xmlns="http://www.w3.org/2000/svg">
<circle cx="10" cy="10" r="10" fill="white"/>
<path d="M10 0C4.48 0 0 4.48 0 10C0 15.52 4.48 20 10 20C15.52 20 20 15.52 20 10C20 4.48 15.52 0 10 0ZM10.06 17V14.99H10C8.72 14.99 7.44 14.5 6.46 13.53C5.64604 12.7152 5.13793 11.6446 5.02135 10.4988C4.90476 9.35302 5.18683 8.20206 5.82 7.24L6.92 8.34C6.21 9.67 6.39 11.35 7.51 12.47C8.21 13.17 9.13 13.5 10.05 13.48V11.34L12.88 14.17L10.06 17ZM14.17 12.76L13.07 11.66C13.78 10.33 13.6 8.65 12.48 7.53C12.1554 7.2027 11.769 6.94312 11.3433 6.7663C10.9176 6.58949 10.461 6.49898 10 6.5H9.94V8.65L7.11 5.83L9.94 3V5.02C11.24 5 12.55 5.47 13.54 6.47C15.24 8.17 15.45 10.82 14.17 12.76Z" fill="#10CC00"/>
</svg>
