<svg width="23" height="19" viewBox="0 0 23 19" fill="none" xmlns="http://www.w3.org/2000/svg">
<path d="M19.2625 18.4H3.7375C2.78284 18.4001 1.86435 18.0348 1.17043 17.3792C0.476522 16.7235 0.0597985 15.8272 0.00575015 14.8741L1.95485e-08 14.6625V2.5875C-8.05251e-05 1.93185 0.24874 1.30063 0.696175 0.821384C1.14361 0.342142 1.75629 0.0506254 2.4104 0.00575015L2.5875 1.95485e-08H16.9625C17.6181 -8.05251e-05 18.2494 0.24874 18.7286 0.696174C19.2079 1.14361 19.4994 1.75629 19.5443 2.4104L19.55 2.5875V3.45H20.4125C21.0681 3.44992 21.6994 3.69874 22.1786 4.14617C22.6579 4.59361 22.9494 5.20629 22.9943 5.8604L23 6.0375V14.6625C23.0001 15.6172 22.6348 16.5357 21.9792 17.2296C21.3235 17.9235 20.4272 18.3402 19.4741 18.3943L19.2625 18.4H3.7375H19.2625ZM3.7375 16.675H19.2625C19.7678 16.675 20.2545 16.4849 20.6261 16.1425C20.9976 15.8001 21.2268 15.3305 21.2681 14.8269L21.275 14.6625V6.0375C21.275 5.82908 21.1995 5.62771 21.0625 5.47063C20.9255 5.31355 20.7363 5.2114 20.5298 5.18305L20.4125 5.175H19.55V14.0875C19.55 14.2959 19.4745 14.4973 19.3375 14.6544C19.2005 14.8114 19.0113 14.9136 18.8048 14.9419L18.6875 14.95C18.4791 14.95 18.2777 14.8745 18.1206 14.7375C17.9636 14.6005 17.8614 14.4113 17.833 14.2048L17.825 14.0875V2.5875C17.825 2.37908 17.7495 2.17771 17.6125 2.02063C17.4755 1.86355 17.2863 1.7614 17.0798 1.73305L16.9625 1.725H2.5875C2.37908 1.72501 2.17771 1.80049 2.02063 1.93748C1.86355 2.07448 1.7614 2.26371 1.73305 2.4702L1.725 2.5875V14.6625C1.72502 15.1676 1.91495 15.6542 2.25708 16.0257C2.59922 16.3972 3.06854 16.6265 3.5719 16.6681L3.7375 16.675H19.2625H3.7375ZM11.7829 12.075H15.2398C15.4583 12.0751 15.6687 12.1581 15.8284 12.3073C15.988 12.4565 16.0851 12.6607 16.1 12.8787C16.1149 13.0967 16.0465 13.3123 15.9086 13.4818C15.7707 13.6513 15.5736 13.7622 15.3571 13.792L15.2398 13.8H11.7829C11.5644 13.7999 11.354 13.7169 11.1943 13.5677C11.0347 13.4185 10.9376 13.2143 10.9227 12.9963C10.9078 12.7783 10.9762 12.5627 11.1141 12.3932C11.252 12.2237 11.4491 12.1128 11.6656 12.083L11.7829 12.075H15.2398H11.7829ZM8.32945 8.05575C8.5582 8.05575 8.77758 8.14662 8.93933 8.30837C9.10108 8.47012 9.19195 8.6895 9.19195 8.91825V12.9375C9.19195 13.1662 9.10108 13.3856 8.93933 13.5474C8.77758 13.7091 8.5582 13.8 8.32945 13.8H4.3102C4.08145 13.8 3.86207 13.7091 3.70032 13.5474C3.53857 13.3856 3.4477 13.1662 3.4477 12.9375V8.91825C3.4477 8.6895 3.53857 8.47012 3.70032 8.30837C3.86207 8.14662 4.08145 8.05575 4.3102 8.05575H8.32945ZM7.46695 9.78075H5.1727V12.075H7.46695V9.78075ZM11.7829 8.05575H15.2398C15.4583 8.05582 15.6687 8.13883 15.8284 8.28802C15.988 8.43721 16.0851 8.64144 16.1 8.85946C16.1149 9.07748 16.0465 9.29303 15.9086 9.46254C15.7707 9.63206 15.5736 9.74291 15.3571 9.7727L15.2398 9.78075H11.7829C11.5628 9.78299 11.3502 9.701 11.1886 9.55159C11.027 9.40217 10.9286 9.19663 10.9136 8.97704C10.8986 8.75746 10.9682 8.54045 11.108 8.37046C11.2478 8.20046 11.4473 8.09034 11.6656 8.06265L11.7829 8.05575H15.2398H11.7829ZM4.3102 4.0273H15.2398C15.4599 4.02506 15.6725 4.10704 15.8341 4.25646C15.9957 4.40588 16.0941 4.61142 16.1091 4.83101C16.1241 5.05059 16.0545 5.2676 15.9147 5.43759C15.7749 5.60759 15.5754 5.71771 15.3571 5.7454L15.2398 5.7523H4.3102C4.09167 5.75223 3.88132 5.66922 3.72164 5.52003C3.56196 5.37084 3.46487 5.16661 3.44997 4.94859C3.43508 4.73057 3.50349 4.51502 3.6414 4.34551C3.7793 4.17599 3.97641 4.06514 4.1929 4.03535L4.3102 4.0273H15.2398H4.3102Z" fill="#A3A3A3"/>
</svg>
