<svg width="22" height="18" viewBox="0 0 22 18" fill="none" xmlns="http://www.w3.org/2000/svg">
<path d="M20 0H2C0.9 0 0 0.9 0 2V16C0 17.1 0.9 18 2 18H20C21.1 18 22 17.1 22 16V2C22 0.9 21.1 0 20 0ZM20 16H2V2H20V16ZM4 4H8C8.6 4 9 4.4 9 5V13C9 13.6 8.6 14 8 14H4C3.4 14 3 13.6 3 13V5C3 4.4 3.4 4 4 4ZM5 6V12H7V6H5ZM14 4H18C18.6 4 19 4.4 19 5V13C19 13.6 18.6 14 18 14H14C13.4 14 13 13.6 13 13V5C13 4.4 13.4 4 14 4ZM15 6V12H17V6H15ZM11 8C11.6 8 12 7.6 12 7C12 6.4 11.6 6 11 6C10.4 6 10 6.4 10 7C10 7.6 10.4 8 11 8ZM11 12C11.6 12 12 11.6 12 11C12 10.4 11.6 10 11 10C10.4 10 10 10.4 10 11C10 11.6 10.4 12 11 12Z" fill="#FCB441"/>
</svg>
