<svg width="25" height="25" viewBox="0 0 25 25" fill="none" xmlns="http://www.w3.org/2000/svg">
<g opacity="0.4">
<path d="M0.892822 4.35268C0.892822 3.19828 1.35141 2.09116 2.16769 1.27487C2.98398 0.458584 4.0911 0 5.2455 0H20.6473C21.8017 0 22.9088 0.458584 23.7251 1.27487C24.5414 2.09116 25 3.19828 25 4.35268V19.7545C25 20.9089 24.5414 22.016 23.7251 22.8323C22.9088 23.6486 21.8017 24.1071 20.6473 24.1071H5.2455C4.0911 24.1071 2.98398 23.6486 2.16769 22.8323C1.35141 22.016 0.892822 20.9089 0.892822 19.7545V4.35268ZM13.9509 6.36161C13.9509 6.09521 13.845 5.83972 13.6567 5.65134C13.4683 5.46297 13.2128 5.35714 12.9464 5.35714C12.68 5.35714 12.4245 5.46297 12.2361 5.65134C12.0478 5.83972 11.9419 6.09521 11.9419 6.36161V11.0491H7.25443C6.98803 11.0491 6.73254 11.1549 6.54417 11.3433C6.35579 11.5317 6.24997 11.7872 6.24997 12.0536C6.24997 12.32 6.35579 12.5755 6.54417 12.7638C6.73254 12.9522 6.98803 13.058 7.25443 13.058H11.9419V17.7455C11.9419 18.0119 12.0478 18.2674 12.2361 18.4558C12.4245 18.6442 12.68 18.75 12.9464 18.75C13.2128 18.75 13.4683 18.6442 13.6567 18.4558C13.845 18.2674 13.9509 18.0119 13.9509 17.7455V13.058H18.6384C18.9048 13.058 19.1602 12.9522 19.3486 12.7638C19.537 12.5755 19.6428 12.32 19.6428 12.0536C19.6428 11.7872 19.537 11.5317 19.3486 11.3433C19.1602 11.1549 18.9048 11.0491 18.6384 11.0491H13.9509V6.36161Z" fill="#6C6C6C"/>
</g>
</svg>
