<svg width="21" height="20" viewBox="0 0 21 20" fill="none" xmlns="http://www.w3.org/2000/svg">
<path d="M20.2494 7.23411C20.1855 7.0512 20.0693 6.89054 19.9149 6.77161C19.7605 6.65269 19.5745 6.58061 19.3794 6.56411L13.6233 5.73411L11.0436 0.56411C10.9608 0.395039 10.8314 0.252452 10.6704 0.152683C10.5094 0.052915 10.3232 0 10.1332 0C9.94311 0 9.75691 0.052915 9.59589 0.152683C9.43486 0.252452 9.30552 0.395039 9.22268 0.56411L6.64303 5.72411L0.886871 6.56411C0.699641 6.59042 0.52362 6.66807 0.378781 6.78827C0.233943 6.90846 0.126086 7.06638 0.0674525 7.24411C0.0137806 7.41778 0.00896417 7.60263 0.0535201 7.7788C0.0980761 7.95498 0.190322 8.11584 0.32036 8.24411L4.49838 12.2441L3.48675 17.9241C3.44591 18.1125 3.46101 18.3086 3.53024 18.4887C3.59947 18.6689 3.71987 18.8254 3.87697 18.9395C4.03407 19.0536 4.22117 19.1204 4.41576 19.1319C4.61036 19.1433 4.80416 19.099 4.97385 19.0041L10.1332 16.3341L15.2925 19.0041C15.4344 19.0833 15.5948 19.1246 15.7578 19.1241C15.9721 19.1249 16.1811 19.0583 16.3547 18.9341C16.5116 18.823 16.6331 18.6698 16.7048 18.4926C16.7765 18.3154 16.7954 18.1216 16.7593 17.9341L15.7477 12.2541L19.9257 8.25411C20.0718 8.13179 20.1797 7.97101 20.237 7.79046C20.2943 7.6099 20.2986 7.41698 20.2494 7.23411ZM14.0279 11.2341C13.9108 11.3465 13.823 11.4853 13.7719 11.6385C13.7208 11.7917 13.708 11.9549 13.7345 12.1141L14.4629 16.3141L10.6592 14.3141C10.5114 14.2418 10.3487 14.2042 10.1837 14.2042C10.0188 14.2042 9.8561 14.2418 9.70827 14.3141L5.90455 16.3141L6.63292 12.1141C6.65946 11.9549 6.64664 11.7917 6.59556 11.6385C6.54447 11.4853 6.45664 11.3465 6.33955 11.2341L3.30466 8.23411L7.56362 7.62411C7.7275 7.60158 7.88329 7.53965 8.01733 7.44376C8.15137 7.34787 8.25957 7.22095 8.33245 7.07411L10.1332 3.26411L12.035 7.08411C12.1079 7.23095 12.2161 7.35787 12.3501 7.45376C12.4842 7.54965 12.64 7.61158 12.8038 7.63411L17.0628 8.24411L14.0279 11.2341Z" fill="#FCB441"/>
</svg>
