<svg width="27" height="19" viewBox="0 0 27 19" fill="none" xmlns="http://www.w3.org/2000/svg">
<path d="M22.1703 18.4H4.70469C3.6307 18.4001 2.59739 18.0348 1.81674 17.3792C1.03609 16.7235 0.567273 15.8272 0.506469 14.8741L0.5 14.6625V2.5875C0.499909 1.93185 0.779832 1.30063 1.2832 0.821384C1.78656 0.342142 2.47583 0.0506254 3.2117 0.00575015L3.41094 1.95485e-08H19.5828C20.3204 -8.05251e-05 21.0305 0.24874 21.5697 0.696174C22.1088 1.14361 22.4368 1.75629 22.4873 2.4104L22.4938 2.5875V3.45H23.4641C24.2017 3.44992 24.9118 3.69874 25.4509 4.14617C25.9901 4.59361 26.318 5.20629 26.3685 5.8604L26.375 6.0375V14.6625C26.3751 15.6172 25.9642 16.5357 25.2266 17.2296C24.489 17.9235 23.4806 18.3402 22.4084 18.3943L22.1703 18.4H4.70469H22.1703ZM4.70469 16.675H22.1703C22.7387 16.675 23.2863 16.4849 23.7043 16.1425C24.1223 15.8001 24.3802 15.3305 24.4266 14.8269L24.4344 14.6625V6.0375C24.4344 5.82908 24.3495 5.62771 24.1953 5.47063C24.0412 5.31355 23.8283 5.2114 23.596 5.18305L23.4641 5.175H22.4938V14.0875C22.4937 14.2959 22.4088 14.4973 22.2547 14.6544C22.1006 14.8114 21.8877 14.9136 21.6554 14.9419L21.5234 14.95C21.289 14.95 21.0624 14.8745 20.8857 14.7375C20.709 14.6005 20.5941 14.4113 20.5622 14.2048L20.5531 14.0875V2.5875C20.5531 2.37908 20.4682 2.17771 20.3141 2.02063C20.16 1.86355 19.9471 1.7614 19.7148 1.73305L19.5828 1.725H3.41094C3.17646 1.72501 2.94992 1.80049 2.77321 1.93748C2.5965 2.07448 2.48157 2.26371 2.44968 2.4702L2.44063 2.5875V14.6625C2.44065 15.1676 2.65431 15.6542 3.03922 16.0257C3.42412 16.3972 3.95211 16.6265 4.51839 16.6681L4.70469 16.675H22.1703H4.70469ZM13.7558 12.075H17.6448C17.8906 12.0751 18.1273 12.1581 18.3069 12.3073C18.4865 12.4565 18.5958 12.6607 18.6125 12.8787C18.6293 13.0967 18.5523 13.3123 18.3972 13.4818C18.242 13.6513 18.0203 13.7622 17.7767 13.792L17.6448 13.8H13.7558C13.5099 13.7999 13.2733 13.7169 13.0936 13.5677C12.914 13.4185 12.8048 13.2143 12.788 12.9963C12.7712 12.7783 12.8482 12.5627 13.0034 12.3932C13.1585 12.2237 13.3803 12.1128 13.6238 12.083L13.7558 12.075H17.6448H13.7558ZM9.87063 8.05575C10.128 8.05575 10.3748 8.14662 10.5567 8.30837C10.7387 8.47012 10.8409 8.6895 10.8409 8.91825V12.9375C10.8409 13.1662 10.7387 13.3856 10.5567 13.5474C10.3748 13.7091 10.128 13.8 9.87063 13.8H5.34898C5.09163 13.8 4.84483 13.7091 4.66286 13.5474C4.48089 13.3856 4.37866 13.1662 4.37866 12.9375V8.91825C4.37866 8.6895 4.48089 8.47012 4.66286 8.30837C4.84483 8.14662 5.09163 8.05575 5.34898 8.05575H9.87063ZM8.90032 9.78075H6.31929V12.075H8.90032V9.78075ZM13.7558 8.05575H17.6448C17.8906 8.05582 18.1273 8.13883 18.3069 8.28802C18.4865 8.43721 18.5958 8.64144 18.6125 8.85946C18.6293 9.07748 18.5523 9.29303 18.3972 9.46254C18.242 9.63206 18.0203 9.74291 17.7767 9.7727L17.6448 9.78075H13.7558C13.5082 9.78299 13.269 9.701 13.0872 9.55159C12.9054 9.40217 12.7947 9.19663 12.7778 8.97704C12.761 8.75746 12.8392 8.54045 12.9965 8.37046C13.1537 8.20046 13.3782 8.09034 13.6238 8.06265L13.7558 8.05575H17.6448H13.7558ZM5.34898 4.0273H17.6448C17.8924 4.02506 18.1316 4.10704 18.3134 4.25646C18.4952 4.40588 18.6058 4.61142 18.6227 4.83101C18.6396 5.05059 18.5614 5.2676 18.4041 5.43759C18.2468 5.60759 18.0224 5.71771 17.7767 5.7454L17.6448 5.7523H5.34898C5.10313 5.75223 4.86648 5.66922 4.68684 5.52003C4.50721 5.37084 4.39797 5.16661 4.38122 4.94859C4.36446 4.73057 4.44143 4.51502 4.59657 4.34551C4.75172 4.17599 4.97346 4.06514 5.21701 4.03535L5.34898 4.0273H17.6448H5.34898Z" fill="#FCB441"/>
</svg>
