<svg width="8" height="24" viewBox="0 0 8 24" fill="none" xmlns="http://www.w3.org/2000/svg">
<path d="M7.92598 0C7.79956 0.553093 7.68894 1.01137 7.56252 1.48545C7.10424 3.27115 6.64596 5.07266 6.20349 6.85836C5.95064 7.83812 5.7136 8.81789 5.46076 9.79765C5.35014 10.2559 5.39755 10.3191 5.88743 10.3349C6.47213 10.3349 7.07263 10.3349 7.65733 10.3349C8.0524 10.3349 8.0682 10.3824 7.89437 10.7458C7.34128 11.8204 6.67757 12.8318 6.07707 13.8747C4.73384 16.1977 3.39061 18.5365 2.04739 20.8595C1.5101 21.7919 0.972806 22.7242 0.435515 23.6566C0.372304 23.7672 0.356502 23.9094 0.119462 23.9252C0.23008 23.467 0.340699 23.0403 0.451318 22.5978C1.17824 19.7375 1.88936 16.8772 2.61628 14.017C2.6953 13.7009 2.53727 13.6535 2.28443 13.6535C1.63652 13.6535 1.00441 13.6535 0.356502 13.6535C-0.0385649 13.6535 -0.0859729 13.5903 0.119462 13.2584C1.28886 11.2041 2.48986 9.16555 3.67506 7.127C4.93927 4.93043 6.20349 2.73386 7.4677 0.553093C7.56252 0.379264 7.64153 0.173829 7.92598 0Z" fill="#FCB441"/>
</svg>
