<svg width="23" height="15" viewBox="0 0 23 15" fill="none" xmlns="http://www.w3.org/2000/svg">
<path fill-rule="evenodd" clip-rule="evenodd" d="M1.75786 0C1.29165 0 0.844528 0.181762 0.514865 0.5053C0.185203 0.828839 0 1.26765 0 1.7252C0 2.18276 0.185203 2.62157 0.514865 2.94511C0.844528 3.26865 1.29165 3.45041 1.75786 3.45041H13.9926C14.4589 3.45041 14.906 3.26865 15.2356 2.94511C15.5653 2.62157 15.7505 2.18276 15.7505 1.7252C15.7505 1.26765 15.5653 0.828839 15.2356 0.5053C14.906 0.181762 14.4589 0 13.9926 0H1.75786Z" fill="#A3A3A3"/>
<path d="M22.3135 3.92683C21.874 4.35821 21.2778 4.60056 20.6562 4.60056C20.0346 4.60056 19.4384 4.35821 18.9989 3.92683C18.5593 3.49544 18.3124 2.91036 18.3124 2.30029C18.3124 1.69022 18.5593 1.10514 18.9989 0.673751C19.4384 0.242367 20.0346 1.74537e-05 20.6562 1.74537e-05C21.2778 1.74537e-05 21.874 0.242367 22.3135 0.673751C22.7531 1.10514 23 1.69022 23 2.30029C23 2.91036 22.7531 3.49544 22.3135 3.92683Z" fill="#A3A3A3"/>
<path d="M4.00114 14.3263C3.56159 14.7576 2.96543 15 2.34381 15C1.72219 15 1.12604 14.7576 0.686487 14.3263C0.246937 13.8949 0 13.3098 0 12.6997C0 12.0897 0.246937 11.5046 0.686487 11.0732C1.12604 10.6418 1.72219 10.3994 2.34381 10.3994C2.96543 10.3994 3.56159 10.6418 4.00114 11.0732C4.44069 11.5046 4.68762 12.0897 4.68762 12.6997C4.68762 13.3098 4.44069 13.8949 4.00114 14.3263Z" fill="#A3A3A3"/>
<path fill-rule="evenodd" clip-rule="evenodd" d="M9.00736 11.5496C8.54115 11.5496 8.09403 11.7313 7.76437 12.0549C7.4347 12.3784 7.2495 12.8172 7.2495 13.2748C7.2495 13.7323 7.4347 14.1711 7.76437 14.4947C8.09403 14.8182 8.54115 15 9.00736 15H21.2421C21.7084 15 22.1555 14.8182 22.4851 14.4947C22.8148 14.1711 23 13.7323 23 13.2748C23 12.8172 22.8148 12.3784 22.4851 12.0549C22.1555 11.7313 21.7084 11.5496 21.2421 11.5496H9.00736Z" fill="#A3A3A3"/>
</svg>
