<svg width="15" height="16" viewBox="0 0 15 16" fill="none" xmlns="http://www.w3.org/2000/svg">
<circle cx="7.5" cy="8.5" r="6.5" fill="white"/>
<path d="M7.50098 15.0057C6.14099 15.0057 4.81154 14.6024 3.68075 13.8469C2.54997 13.0913 1.66862 12.0174 1.14818 10.7609C0.627735 9.50447 0.491563 8.12189 0.756884 6.78803C1.0222 5.45418 1.6771 4.22895 2.63876 3.2673C3.60041 2.30564 4.82564 1.65074 6.15949 1.38542C7.49335 1.1201 8.87593 1.25628 10.1324 1.77672C11.3889 2.29716 12.4628 3.17851 13.2183 4.30929C13.9739 5.44008 14.3772 6.76953 14.3772 8.12952C14.3772 9.9532 13.6527 11.7022 12.3632 12.9917C11.0737 14.2813 9.32466 15.0057 7.50098 15.0057ZM7.50098 2.50352C6.38826 2.50352 5.30053 2.83348 4.37534 3.45167C3.45015 4.06986 2.72905 4.94852 2.30323 5.97654C1.87742 7.00456 1.766 8.13576 1.98308 9.22709C2.20016 10.3184 2.73599 11.3209 3.5228 12.1077C4.30961 12.8945 5.31206 13.4303 6.4034 13.6474C7.49473 13.8645 8.62593 13.7531 9.65395 13.3273C10.682 12.9014 11.5606 12.1803 12.1788 11.2552C12.797 10.33 13.127 9.24223 13.127 8.12952C13.127 6.63741 12.5342 5.20641 11.4792 4.15134C10.4241 3.09626 8.99308 2.50352 7.50098 2.50352Z" fill="#FCB441"/>
<path d="M9.12 10.6299L6.87585 8.38574V4.37878H8.12608V7.8669L10.0014 9.74849L9.12 10.6299Z" fill="#FCB441"/>
<path d="M0 2.24854L2.23869 0.00514856L3.12366 0.888262L0.884965 3.13165L0 2.24854Z" fill="#FCB441"/>
<path d="M11.8763 0.883179L12.7613 6.49032e-05L15 2.24345L14.115 3.12657L11.8763 0.883179Z" fill="#FCB441"/>
</svg>
