<svg width="10" height="18" viewBox="0 0 10 18" fill="none" xmlns="http://www.w3.org/2000/svg">
<path d="M9.63215 0.365911C9.86646 0.600288 9.99808 0.91813 9.99808 1.24954C9.99808 1.58095 9.86646 1.89879 9.63215 2.13317L3.01681 8.7485L9.63215 15.3638C9.85982 15.5996 9.98579 15.9153 9.98294 16.243C9.9801 16.5707 9.84865 16.8841 9.61693 17.1159C9.3852 17.3476 9.07172 17.479 8.74402 17.4819C8.41632 17.4847 8.10061 17.3588 7.86489 17.1311L0.365932 9.63213C0.131626 9.39775 -3.67264e-07 9.07991 -3.8175e-07 8.7485C-3.96237e-07 8.41709 0.131626 8.09925 0.365932 7.86487L7.86489 0.365911C8.09927 0.131605 8.41711 -1.94414e-05 8.74852 -1.94559e-05C9.07993 -1.94704e-05 9.39777 0.131605 9.63215 0.365911Z" fill="#D3D3D3"/>
</svg>
