<svg width="27" height="27" viewBox="0 0 27 27" fill="none" xmlns="http://www.w3.org/2000/svg">
<path d="M26.1283 13.4966C26.1372 13.1958 26.2165 8.8965 23.6721 6.09778C23.5591 5.84761 23.0229 4.83933 21.2924 3.60703C20.5252 3.01194 19.7103 2.48097 18.856 2.01952L18.8526 2.01783C18.7446 1.96003 16.6344 0.84375 14.0732 0.84375C13.8787 0.84375 13.6864 0.855141 13.4961 0.868219V0.864844C11.5432 0.822234 9.60346 1.32469 8.43444 1.85245C7.39747 2.32073 6.24618 3.10584 6.16307 3.16659C4.72701 3.96984 2.0038 7.19339 1.78822 8.90156C0.917896 10.014 0.190584 15.0112 1.78991 18.055C2.91126 22.2851 7.13254 24.4021 7.46835 24.5645C7.67254 24.6949 9.97302 26.117 12.7992 26.117C12.9177 26.117 13.6345 26.1567 13.8901 26.1567C16.9449 26.1567 21.4716 24.0034 22.4192 22.3168C25.0226 20.4124 26.3721 15.5047 26.1283 13.4966ZM7.49155 19.8513C6.28119 17.8934 5.59143 15.3352 5.44377 14.7475C5.82683 14.1733 7.71641 11.3872 8.79304 10.549C9.40265 10.6612 11.9482 11.1286 14.3491 11.5632C14.6508 12.3449 15.9742 15.7942 16.353 17.1256C15.9354 17.6209 14.2947 19.5311 12.6793 21.0271C10.9644 21.0351 8.04758 20.0458 7.49155 19.8513ZM22.7069 6.15094C22.7018 6.34078 22.6567 7.01578 22.3335 7.79076C21.6919 7.46297 20.079 6.76097 17.8684 6.64242C17.5339 6.14841 16.275 4.42589 14.2867 3.23114C14.5588 2.69873 14.9376 2.04947 15.1591 1.85161C15.2308 1.83136 15.3422 1.8128 15.5118 1.8128C16.5779 1.8128 18.4198 2.511 18.5801 2.57302C18.7501 2.66287 22.061 4.44572 22.7069 6.15094ZM4.96663 14.3488C3.52255 14.1024 2.66404 13.6536 2.40754 13.5017C1.87049 11.5539 2.30291 9.44873 2.36957 9.14709C2.89944 8.19956 4.40807 5.78433 5.40327 5.32575C6.43476 5.11523 7.72105 5.3768 8.24502 5.50462C8.19566 6.18595 8.10074 8.08945 8.38255 10.087C7.24096 11.0059 5.43407 13.6506 4.96663 14.3488ZM13.367 1.48922C13.691 1.51327 14.1665 1.58414 14.4921 1.68075C14.1673 2.11275 13.8344 2.75316 13.6771 3.06956C13.0147 3.17798 10.4991 3.65892 8.52557 4.93847C8.12774 4.833 6.92624 4.55161 5.78844 4.64864C6.07026 4.10316 6.49129 3.69984 6.53643 3.6585C6.69294 3.54628 9.70597 1.43817 13.367 1.48373V1.48922ZM21.4231 17.5597C20.9295 17.5395 19.0277 17.431 16.9424 16.9412C16.5429 15.5482 15.2237 12.1133 14.922 11.332C15.8818 9.96403 16.8561 8.60636 17.8448 7.2592C20.2444 7.39083 21.9294 8.26622 22.2555 8.44889C23.6456 10.6844 23.9506 12.9676 23.9923 13.349C23.2541 15.6465 21.794 17.1935 21.4231 17.5597ZM1.54185 12.0315C1.57729 12.5655 1.66293 13.1279 1.81776 13.6839C1.67856 14.0442 1.582 14.4196 1.53004 14.8023C1.44193 13.8806 1.44589 12.9524 1.54185 12.0315ZM5.61041 21.886C6.2466 21.273 7.03087 20.6765 7.33504 20.4512C8.02269 20.6934 10.8467 21.6481 12.6469 21.6481C12.9536 22.0594 13.9564 23.3474 15.1857 24.3321C14.4204 25.0809 13.3151 25.4344 13.1198 25.4931C9.69121 25.585 6.35207 23.6579 5.61041 21.886ZM14.6651 25.488C15.0541 25.2615 15.4595 24.9632 15.7949 24.5856C16.3421 24.5101 18.6902 24.1059 20.8123 22.5471C20.9523 22.5623 21.1831 22.5809 21.4409 22.5737C20.1676 23.8212 17.0609 25.2146 14.6651 25.488ZM21.1721 21.9544C21.9344 19.9682 21.902 18.4705 21.8644 17.9921C22.2829 17.5821 23.719 16.0519 24.5159 13.7257C24.9454 13.7974 25.2246 13.9067 25.3571 13.9679C25.4031 14.1366 25.4799 14.5264 25.4364 15.1175C25.1116 17.245 23.9902 20.4331 22.026 21.8426C21.8286 21.9434 21.4809 21.9653 21.1721 21.9544Z" fill="#565656"/>
</svg>
