<svg width="33" height="20" viewBox="0 0 33 20" fill="none" xmlns="http://www.w3.org/2000/svg">
<path fill-rule="evenodd" clip-rule="evenodd" d="M30.2863 16.8949C30.0195 16.8682 29.735 16.8682 29.4237 16.8682C28.988 16.8682 28.6057 16.8949 28.2233 16.8949L28.6057 19.0556C28.6057 19.1534 28.7035 19.1979 28.8013 19.1979H30.6953C30.7931 19.1979 30.8643 19.1534 30.8909 19.0556L31.3177 16.8949H30.9798C30.7664 16.8949 30.5264 16.8949 30.2863 16.8949ZM30.0906 3.10332C29.3437 3.10332 29.4149 5.33522 27.8587 5.88653C27.094 6.17996 26.3649 6.26888 25.7158 6.26888C24.5865 6.26888 23.7239 5.93099 23.3861 5.61977C22.8792 5.1396 27.4942 3.5746 26.5072 2.2319L24.9955 0.213409C24.8977 0.0711363 24.7287 0 24.5865 0C24.4709 0 24.3731 0.0266761 24.2753 0.0978124L19.2068 3.82358C19.2068 3.82358 17.2594 3.82358 16.9215 4.95286C16.9215 4.95286 16.8771 4.95286 16.7793 4.95286C16.3702 4.95286 15.2143 5.05068 14.9031 5.98434C14.9031 5.98434 10.0925 6.94468 7.23812 8.483C4.37488 10.0213 0 9.92351 0 12.351C0 14.8052 3.86804 16.4325 6.94468 16.4325C10.0213 16.4325 25.4312 15.9523 27.592 15.8367C28.0455 15.81 28.4812 15.81 28.8902 15.81C29.4682 15.81 29.9928 15.81 30.4552 15.81C32.0914 15.81 32.9272 15.6144 32.9539 13.7382C32.9983 10.9728 33.3362 6.6957 31.2199 4.02809C30.6953 3.36119 30.3307 3.10332 30.0906 3.10332ZM18.8155 16.1035L16.1479 16.0768C16.1035 16.0768 16.0501 16.0501 16.0323 16.0323L9.18547 9.83459C9.06988 9.71899 9.11434 9.55005 9.25661 9.49669L11.1773 8.98985C11.2217 8.96317 11.2929 8.98985 11.3462 9.01652L18.9667 15.7656C19.0823 15.8901 18.9845 16.1035 18.8155 16.1035ZM23.4305 14.7519L20.7362 14.7252C20.6918 14.7252 20.6384 14.6985 20.6206 14.6807L13.7738 8.45632C13.6759 8.35851 13.7026 8.18956 13.8449 8.1451L15.7656 7.62047C15.8367 7.62047 15.8901 7.62047 15.9345 7.66493L23.555 14.4229C23.6706 14.5385 23.5995 14.7519 23.4305 14.7519ZM28.0277 13.6759L25.3334 13.6315C25.2889 13.6315 25.2623 13.6315 25.2178 13.587L18.3709 7.38928C18.2642 7.28258 18.3176 7.11363 18.4599 7.06917L20.3628 6.54454C20.4339 6.54454 20.505 6.54454 20.5584 6.589L28.1522 13.3469C28.2856 13.4625 28.1966 13.6759 28.0277 13.6759ZM3.96585 17.0638L4.40156 19.3935C4.40156 19.4647 4.49937 19.5358 4.57051 19.5358H6.49119C6.56232 19.5358 6.66013 19.4647 6.66013 19.3935L7.06917 17.4728C6.03769 17.4284 4.97954 17.2328 4.0192 16.9215C3.96585 16.966 3.96585 17.0194 3.96585 17.0638ZM8.74976 19.3935C8.77644 19.4647 8.84758 19.5358 8.94539 19.5358H10.8483C10.9461 19.5358 11.0172 19.4647 11.0439 19.3935L11.4263 17.4195C10.2258 17.4462 9.19436 17.464 8.42076 17.4906L8.74976 19.3935ZM23.5283 19.0823C23.5283 19.1801 23.6261 19.2513 23.6973 19.2513H25.618C25.6891 19.2513 25.7602 19.1801 25.7869 19.0823L26.2226 16.9927C25.3779 17.0194 24.3286 17.0638 23.1726 17.0905L23.5283 19.0823Z" fill="#2C28FC"/>
</svg>
