<svg width="22" height="19" viewBox="0 0 22 19" fill="none" xmlns="http://www.w3.org/2000/svg">
<path d="M16.8333 5.25L21 9.5L16.8333 13.75M6.83333 9.5H20.1667M13.5 5.25V3.125C13.5 2.56141 13.2805 2.02091 12.8898 1.6224C12.4991 1.22388 11.9692 1 11.4167 1H3.08333C2.5308 1 2.00089 1.22388 1.61019 1.6224C1.21949 2.02091 1 2.56141 1 3.125V15.875C1 16.4386 1.21949 16.9791 1.61019 17.3776C2.00089 17.7761 2.5308 18 3.08333 18H11C12.1505 18 13.5 17.0485 13.5 15.875V13.75V5.25Z" stroke="#D3D3D3" stroke-width="2" stroke-linecap="round" stroke-linejoin="round"/>
</svg>
