<svg width="33" height="22" viewBox="0 0 33 22" fill="none" xmlns="http://www.w3.org/2000/svg">
<path d="M31.152 0H1.84796C0.826579 0 0 0.826579 0 1.84796V19.9327C0 20.954 0.826579 21.7806 1.84796 21.7806H31.152C32.1734 21.7806 33 20.954 33 19.9327V1.84796C33.0052 0.826579 32.1734 0 31.152 0Z" fill="#10CC00"/>
<path d="M31.7578 20.2433H1.24805V1.53735H31.7578V20.2433ZM2.33787 19.1535H30.6627V2.62717H2.33787V19.1535Z" fill="white"/>
<path d="M5.93887 15.6681H1.3374V6.11243H5.9336V15.6681H5.93887ZM2.42722 14.5783H4.84378V7.20225H2.42722V14.5783Z" fill="white"/>
<path d="M31.7417 15.6681H27.1455V6.11243H31.7417V15.6681ZM28.2353 14.5783H30.6519V7.20225H28.2353V14.5783Z" fill="white"/>
<path d="M17.0473 2.13757H15.9575V19.6484H17.0473V2.13757Z" fill="white"/>
<path d="M16.4999 14.8837C14.2992 14.8837 12.5039 13.0937 12.5039 10.8877C12.5039 8.68177 14.2939 6.89172 16.4999 6.89172C18.7006 6.89172 20.4959 8.68177 20.4959 10.8877C20.4959 13.0937 18.7059 14.8837 16.4999 14.8837ZM16.4999 7.98681C14.8994 7.98681 13.599 9.28722 13.599 10.893C13.599 12.4988 14.8994 13.7939 16.4999 13.7939C18.1004 13.7939 19.4061 12.4935 19.4061 10.893C19.4061 9.29249 18.1004 7.98681 16.4999 7.98681Z" fill="white"/>
</svg>
